Motion_kv01_l
version=1
nRows=12
nColumns=43
inDegrees=yes
endheader
time	pelvis_tilt	pelvis_list	pelvis_rotation	pelvis_tx	pelvis_ty	pelvis_tz	hip_flexion_r	hip_adduction_r	hip_rotation_r	knee_angle_r	ankle_angle_r	subtalar_angle_r	mtp_angle_r	hip_flexion_l	hip_adduction_l	hip_rotation_l	knee_angle_l	ankle_angle_l	subtalar_angle_l	mtp_angle_l	lumbar_extension	lumbar_bending	lumbar_rotation	neck_flexion	neck_lateral_bending	neck_rotation	arm_flex_r	arm_add_r	arm_rot_r	elbow_flex_r	pro_sup_r	wrist_flex_r	wrist_dev_r	hand_finger_flex_r	arm_flex_l	arm_add_l	arm_rot_l	elbow_flex_l	pro_sup_l	wrist_flex_l	wrist_dev_l	hand_finger_flex_l
      0.94500000	      2.48400787	     -6.42056269	     88.71591751	      0.02912140	      1.18660670	      0.57577874	     38.09480530	     -2.72325493	    -10.11045153	    -25.62438713	    -25.15076435	     -2.95188849	     -5.85292665	     34.05197292	     -6.51376342	     -6.70715276	    -17.12413734	    -23.69240253	    -11.30639840	    -14.24076663	    -28.63500015	     -0.34556672	      1.71996418	    -28.67445028	      1.46034346	      4.54399419	    101.20543161	   -168.42276098	    159.92294467	     91.05681564	    121.69786530	    -45.18967398	    -24.99999983	     13.57121121	    -75.44291320	    -14.11599319	    -21.31309749	     96.66350287	    106.70436553	    -55.66896357	    -12.50518312	     90.00021046
      0.94750000	      2.38971746	     -6.39982044	     88.70166204	      0.02937226	      1.17977108	      0.57005095	     37.62020622	     -2.79206546	    -10.17732413	    -25.09205399	    -25.15990942	     -3.00937480	     -5.89758653	     33.62227725	     -6.39090180	     -6.58262021	    -16.62624754	    -23.64487260	    -11.27168934	    -14.15438280	    -27.95305390	     -0.44217391	      1.64807594	    -29.55909273	      1.51052782	      4.60110118	    100.47468456	   -168.80471808	    159.74762332	     91.29045218	    121.67957991	    -45.46821886	    -24.99999983	     13.69482920	    -76.07832408	    -14.00087991	    -21.48104764	     96.80390118	    106.74266298	    -55.67835031	    -12.60039479	     90.00021046
      0.95000000	      2.31751617	     -6.40610991	     88.69832515	      0.02954853	      1.17288420	      0.56436207	     37.16865886	     -2.86924155	    -10.30252311	    -24.51551517	    -25.17015935	     -3.07157091	     -5.94302112	     33.21827363	     -6.30521046	     -6.55226414	    -16.12552969	    -23.67087801	    -11.19922940	    -14.07859510	    -27.28031840	     -0.51014115	      1.59149084	    -30.30576378	      1.53833173	      4.63523253	     99.81155976	   -169.15284764	    159.54316159	     91.46830735	    121.79472160	    -45.76414865	    -24.99999983	     13.80719257	    -76.65660098	    -13.87267410	    -21.66457430	     96.94286058	    106.79858270	    -55.61715914	    -12.66278620	     90.00021046
      0.95250000	      2.24311850	     -6.39812637	     88.68889792	      0.02983366	      1.16602818	      0.55867977	     36.69132370	     -2.92782873	    -10.42786849	    -23.93642660	    -25.18213679	     -3.14133153	     -5.99260730	     32.80518747	     -6.21912828	     -6.49501852	    -15.62471637	    -23.70139071	    -11.09791021	    -13.98967660	    -26.63119527	     -0.59290015	      1.50844027	    -31.10342822	      1.56149697	      4.66749190	     99.20888569	   -169.52209856	    159.32081348	     91.63689758	    122.03218114	    -46.09777605	    -24.99999983	     13.93611154	    -77.20665818	    -13.74616090	    -21.88162782	     97.05826771	    106.89546824	    -55.47972784	    -12.70320897	     90.00021046
      0.95500000	      2.17634927	     -6.38002634	     88.69721256	      0.03003482	      1.15916086	      0.55307603	     36.22253447	     -2.98807564	    -10.52772719	    -23.37957853	    -25.17833562	     -3.21241677	     -6.03597088	     32.40200352	     -6.12399677	     -6.42316594	    -15.17113028	    -23.72278544	    -10.98498490	    -13.89678375	    -26.02309635	     -0.66475704	      1.43764948	    -31.80504939	      1.57400766	      4.70779309	     98.64440522	   -169.88005438	    159.07132431	     91.77826228	    122.33280725	    -46.43325096	    -24.99999983	     14.06843635	    -77.69110016	    -13.58597661	    -22.15448774	     97.20438002	    107.02206525	    -55.30851184	    -12.72336858	     90.00021046
      0.95750000	      2.10473232	     -6.34558706	     88.69949028	      0.03032512	      1.15228951	      0.54749875	     35.73420280	     -3.04098677	    -10.63039139	    -22.82236345	    -25.15639512	     -3.29021921	     -6.07298872	     31.99783848	     -6.03666396	     -6.33071873	    -14.73905131	    -23.74195518	    -10.85380765	    -13.78958076	    -25.44785493	     -0.74671697	      1.33981087	    -32.48972450	      1.59210887	      4.75851816	     98.14970332	   -170.24077908	    158.81256949	     91.92188998	    122.71742065	    -46.78010351	    -24.99999983	     14.22870960	    -78.15401144	    -13.41650550	    -22.47286918	     97.32326882	    107.19371098	    -55.07720301	    -12.71342042	     90.00021046
      0.96000000	      2.03109234	     -6.37087460	     88.64520558	      0.03062250	      1.14508501	      0.54241953	     35.38537673	     -3.06722860	    -10.68381695	    -22.32650918	    -25.09568238	     -3.32611158	     -6.07796991	     31.76147909	     -5.96913769	     -6.24517153	    -14.47062321	    -23.72368016	    -10.79376333	    -13.75853783	    -24.92267688	     -0.85473047	      1.30508333	    -32.58491865	      1.60331794	      4.78093525	     97.63973008	   -170.52155685	    158.56858371	     92.14463349	    122.80525864	    -46.98559708	    -24.99999983	     14.24602502	    -78.56197238	    -13.25102767	    -22.76570159	     97.49357090	    107.23320760	    -55.06864037	    -12.72435528	     90.00021046
      0.96250000	      2.01453549	     -6.11682984	     88.78466833	      0.03076476	      1.13876966	      0.53659251	     34.58771482	     -3.14034349	    -10.98726707	    -21.71610478	    -25.08342227	     -3.44448552	     -6.09766358	     31.09473313	     -5.88153868	     -6.20991233	    -13.98373817	    -23.81420827	    -10.41051233	    -13.31040365	    -24.60436944	     -0.85374899	      1.10772468	    -33.45010330	      1.66319590	      4.98815591	     97.36990714	   -170.97686565	    158.12306673	     92.08847649	    124.33180627	    -47.71693239	    -24.99999983	     15.11999052	    -78.88177070	    -12.90512251	    -23.42502318	     97.66833989	    108.02269135	    -53.83991758	    -12.39471440	     89.98772106
      0.96500000	      1.92955250	     -6.12972140	     88.72308909	      0.03109088	      1.13154965	      0.53158142	     34.25574910	     -3.16143261	    -10.95136578	    -21.27404159	    -25.00426532	     -3.46480515	     -6.08971835	     30.87927549	     -5.80433164	     -6.05216222	    -13.79963597	    -23.77001338	    -10.35954492	    -13.27383540	    -24.11088238	     -0.97912819	      1.07916635	    -33.62608817	      1.66633210	      4.99318483	     96.95540054	   -171.27361713	    157.85443220	     92.31059629	    124.30125764	    -47.90132216	    -24.99999983	     15.14046051	    -79.18540947	    -12.72530814	    -23.76840389	     97.82630236	    108.01811506	    -53.88635677	    -12.38278848	     89.98196818
      0.96750000	      1.84506176	     -6.12478242	     88.70568542	      0.03139381	      1.12440465	      0.52647735	     33.89091543	     -3.19528291	    -10.91067910	    -20.83215366	    -24.90923721	     -3.50519425	     -6.07418138	     30.63536586	     -5.70874571	     -5.89717870	    -13.60756863	    -23.73031770	    -10.28669728	    -13.23363854	    -23.62057423	     -1.09026204	      0.99904616	    -34.00088061	      1.66353720	      5.02584598	     96.62286030	   -171.61850958	    157.53877211	     92.48865458	    124.32028591	    -48.08954602	    -24.99999983	     15.17338234	    -79.44470176	    -12.50094781	    -24.18324175	     97.98994287	    108.01328249	    -53.91266887	    -12.35978258	     89.98634310
      0.97000000	      1.75208221	     -6.01542638	     88.79735168	      0.03157682	      1.11772334	      0.52080814	     33.35488965	     -3.28681546	    -10.91355740	    -20.41859123	    -24.74570621	     -3.62573401	     -5.99992963	     30.22281021	     -5.55176647	     -5.68937017	    -13.36950980	    -23.68214547	    -10.07969491	    -13.09427318	    -23.15716692	     -1.19400147	      0.76114989	    -34.99328872	      1.70645730	      5.16623496	     96.43854272	   -171.86193709	    157.23642024	     92.50928288	    124.68159474	    -48.25915138	    -24.99999983	     15.46323182	    -79.65427468	    -12.25669714	    -24.63261089	     98.05478508	    108.08906354	    -53.64056471	    -12.19767176	     90.00021046
      0.97250000	      1.67817625	     -6.01181715	     88.75698740	      0.03179398	      1.11046322	      0.51603784	     33.05177851	     -3.31111245	    -10.93540509	    -20.05873160	    -24.65662904	     -3.65590883	     -5.97271261	     30.06387505	     -5.47827077	     -5.60505683	    -13.31928644	    -23.67440739	    -10.00665620	    -13.05851426	    -22.75634023	     -1.29263827	      0.72623355	    -35.03161720	      1.71326390	      5.21435405	     96.18628686	   -172.16220316	    156.88684095	     92.68255141	    124.70947454	    -48.42114884	    -24.99999983	     15.50984398	    -79.77107075	    -12.02286551	    -25.05686686	     98.23559966	    108.06108397	    -53.64916075	    -12.15938590	     90.00021046
